HIERARCHY
ROOT root
{
	OFFSET	0	13.1	24.9
	CHANNELS 6  Xposition Yposition Zposition Xrotation Yrotation Zrotation
	JOINT spine_1
	{
		OFFSET	0	9.99999	0
		CHANNELS 3  Xrotation Yrotation Zrotation
		JOINT spine_2
		{
			OFFSET	0	112	-10
			CHANNELS 3  Xrotation Yrotation Zrotation
			JOINT spine_3
			{
				OFFSET	0	206.5	19.3
				CHANNELS 3  Xrotation Yrotation Zrotation
				JOINT spine_4
				{
					OFFSET	0	110.4	14.6
					CHANNELS 3  Xrotation Yrotation Zrotation
					JOINT neck_1
					{
						OFFSET	0	71.8	-50.3
						CHANNELS 3  Xrotation Yrotation Zrotation
						JOINT neck_2
						{
							OFFSET	0	86.2	-25.8
							CHANNELS 3  Xrotation Yrotation Zrotation
							JOINT head_ee
							{
								OFFSET	0	179.8	-8.7
								CHANNELS 3  Xrotation Yrotation Zrotation
								End Site
								{
									OFFSET	1	0	0
								}
							}
						}
					}
					JOINT left_clavicle
					{
						OFFSET	-43.2	22.4	-70.8
						CHANNELS 3  Xrotation Yrotation Zrotation
						JOINT left_shoulder
						{
							OFFSET	-93.9	-5.79999	48.7
							CHANNELS 3  Xrotation Yrotation Zrotation
							JOINT left_elbow
							{
								OFFSET	-291.4	-30.8	15.2
								CHANNELS 3  Xrotation Yrotation Zrotation
								JOINT left_lowarm_twist
								{
									OFFSET	-110.7	-3.89999	13.6
									CHANNELS 3  Xrotation Yrotation Zrotation
									JOINT left_hand
									{
										OFFSET	-110.7	-3.89999	13.6
										CHANNELS 3  Xrotation Yrotation Zrotation
										JOINT left_ee
										{
											OFFSET	-80.8	-5.10001	12.1
											CHANNELS 3  Xrotation Yrotation Zrotation
											End Site
											{
												OFFSET	1	0	0
											}
										}
									}
								}
							}
						}
					}
					JOINT right_clavicle
					{
						OFFSET	43.2	22.4	-70.8
						CHANNELS 3  Xrotation Yrotation Zrotation
						JOINT right_shoulder
						{
							OFFSET	93.9	-5.79999	48.7
							CHANNELS 3  Xrotation Yrotation Zrotation
							JOINT right_elbow
							{
								OFFSET	291.4	-30.8	15.2
								CHANNELS 3  Xrotation Yrotation Zrotation
								JOINT right_lowarm_twist
								{
									OFFSET	110.7	-3.89999	13.6
									CHANNELS 3  Xrotation Yrotation Zrotation
									JOINT right_hand
									{
										OFFSET	110.7	-3.89999	13.6
										CHANNELS 3  Xrotation Yrotation Zrotation
										JOINT right_ee
										{
											OFFSET	80.8	-5.10001	12.1
											CHANNELS 3  Xrotation Yrotation Zrotation
											End Site
											{
												OFFSET	1	0	0
											}
										}
									}
								}
							}
						}
					}
				}
			}
		}
	}
	JOINT left_hip
	{
		OFFSET	-82.8	-127.5	0.300001
		CHANNELS 3  Xrotation Yrotation Zrotation
		JOINT left_knee
		{
			OFFSET	-28.2	-396.7	2.2
			CHANNELS 3  Xrotation Yrotation Zrotation
			JOINT left_ankle
			{
				OFFSET	-11.7	-411.3	35.4
				CHANNELS 3  Xrotation Yrotation Zrotation
				JOINT left_toes
				{
					OFFSET	0	-60	-88.6
					CHANNELS 3  Xrotation Yrotation Zrotation
					JOINT left_foot_ee
					{
						OFFSET	-22.5	-16.5	-42.2
						CHANNELS 3  Xrotation Yrotation Zrotation
						End Site
						{
							OFFSET	1	0	0
						}
					}
				}
			}
		}
	}
	JOINT right_hip
	{
		OFFSET	82.8	-127.5	0.300001
		CHANNELS 3  Xrotation Yrotation Zrotation
		JOINT right_knee
		{
			OFFSET	28.2	-396.7	2.2
			CHANNELS 3  Xrotation Yrotation Zrotation
			JOINT right_ankle
			{
				OFFSET	11.7	-411.3	35.4
				CHANNELS 3  Xrotation Yrotation Zrotation
				JOINT right_toes
				{
					OFFSET	0	-60	-88.6
					CHANNELS 3  Xrotation Yrotation Zrotation
					JOINT right_foot_ee
					{
						OFFSET	22.5	-16.5	-42.2
						CHANNELS 3  Xrotation Yrotation Zrotation
						End Site
						{
							OFFSET	1	0	0
						}
					}
				}
			}
		}
	}
}
MOTION
Frames: 6
Frame Time: 0.02
2961.02935636 687.309 -1910.36808457 5.57749104585 46.4049932515 16.1938524634 0.769367 -1.16339 -5.44623 0.785491 -0.815018 -5.50896 0.8696 0.27622 -5.56191 0.826968 -0.604269 -5.53596 -5.18421 -3.66931 3.87115 -5.11052 -9.64838 3.30057 -0.0 0.0 -0.0 9.03958 -4.31451 17.7797 1.32723 -28.5869 66.1038 1.18617 -30.4371 0.322699 28.4895 0.110565 -3.60037 -0.456935 1.74311 -2.30365 -0.0 0.0 -0.0 3.1751 -14.0044 -6.82481 -11.1268 12.3805 -64.4192 0.473034 13.1882 -0.0546829 14.1671 -0.279932 1.78348 2.57139 -3.35896 -18.7611 0.0 0.0 0.0 24.4935 13.3979 -29.6451 -33.545 -0.10796 5.0741 30.0664 -17.2304 -4.24065 -19.6525 0.0 0.0 -0.0 0.0 -0.0 12.9308 1.94345 -21.8188 -50.649 1.27916 -7.41861 27.2066 -24.7676 3.77272 3.06065 -0.0 -0.0 0.0 0.0 0.0 
2960.35214626 687.309 -1909.75962835 5.59401190711 46.5653803209 16.1710712617 0.769367 -1.16339 -5.44623 0.785491 -0.815018 -5.50896 0.8696 0.27622 -5.56191 0.826968 -0.604269 -5.53596 -5.18421 -3.66931 3.87115 -5.11052 -9.64838 3.30057 -0.0 0.0 -0.0 9.03958 -4.31451 17.7797 1.32723 -28.5869 66.1038 1.18617 -30.4371 0.322699 28.4895 0.110565 -3.60037 -0.456935 1.74311 -2.30365 -0.0 0.0 -0.0 3.1751 -14.0044 -6.82481 -11.1268 12.3805 -64.4192 0.473034 13.1882 -0.0546829 14.1671 -0.279932 1.78348 2.57139 -3.35896 -18.7611 0.0 0.0 0.0 24.4935 13.3979 -29.6451 -33.545 -0.10796 5.0741 30.0664 -17.2304 -4.24065 -19.6525 0.0 0.0 -0.0 0.0 -0.0 12.9308 1.94345 -21.8188 -50.649 1.27916 -7.41861 27.2066 -24.7676 3.77272 3.06065 -0.0 -0.0 0.0 0.0 0.0 
2942.76201547 689.335 -1911.90780475 5.14078220689 47.4258349081 16.9747646976 0.980926 -1.25 -5.65995 0.9983 -0.887918 -5.72771 1.09225 0.224605 -5.79156 1.04614 -0.691336 -5.75466 -6.22708 -3.1238 3.82387 -6.16965 -8.58386 3.26018 -0.0 0.0 -0.0 10.2807 -5.38748 20.4299 3.16943 -29.068 64.0005 1.01089 -26.5995 0.238964 28.2679 0.116634 -3.57271 -0.312359 -1.12325 -2.56644 -0.0 0.0 -0.0 2.78996 -14.6933 -6.22569 -11.0631 13.2735 -64.7924 0.431992 12.0791 -0.045706 12.4478 -0.269604 1.56413 2.16864 -3.04957 -15.8435 0.0 0.0 0.0 25.5674 16.3291 -31.7303 -32.5392 -0.0615365 4.92675 30.9255 -17.71 -4.35234 -20.578 0.0 0.0 -0.0 0.0 -0.0 14.3083 2.62362 -22.4721 -49.2604 1.15837 -7.24215 25.7784 -23.3166 3.57097 2.5243 -0.0 -0.0 0.0 0.0 0.0 
2886.48523752 686.724 -1929.35536138 9.56652945881 48.8500529949 14.6228655873 0.695031 -1.50113 -6.34573 0.716751 -1.09515 -6.42792 0.848103 0.18223 -6.51762 0.789877 -0.847201 -6.46512 -6.93805 -2.81463 5.15018 -6.84992 -8.94971 4.59584 -0.0 0.0 -0.0 11.693 -6.52828 23.5369 6.57543 -27.7238 60.2595 0.811032 -21.8882 0.15683 23.9258 0.213832 -3.0267 -0.593696 -12.4204 -9.31764 -0.0 0.0 -0.0 0.950029 -16.2915 -3.40227 -11.5362 17.5464 -65.7805 0.411481 11.5213 -0.0415114 9.86185 -0.24169 1.23503 1.32749 -4.11377 -10.535 0.0 0.0 0.0 26.2429 28.1879 -40.2992 -30.0595 0.0417817 4.56029 37.7936 -20.8908 -5.1874 -18.2313 0.0 0.0 -0.0 0.0 -0.0 26.084 -3.41035 -18.6563 -55.0935 1.69411 -7.96315 20.0147 -23.2825 2.84455 -1.07291 0.0 0.0 0.0 0.0 0.0 
2853.11809318 677.316 -1936.6604079 5.96290558785 49.5398495096 17.3694421143 1.38986 -1.24457 -6.42895 1.41245 -0.833842 -6.49473 1.51057 0.377422 -6.53698 1.4516 -0.657465 -6.51487 -5.91201 -1.48429 5.87192 -5.79597 -7.07933 5.66634 -0.0 0.0 -0.0 11.1714 -8.67556 22.4163 9.12244 -28.0147 57.6684 0.978305 -25.8554 0.224565 22.7373 0.233198 -2.87611 -0.816564 -19.5362 -13.8212 -0.0 0.0 -0.0 -0.979934 -18.9515 -0.747917 -14.1226 21.7753 -67.0709 0.714812 19.4989 -0.122822 10.504 -0.250008 1.31663 1.56699 -4.09029 -12.1385 0.0 0.0 0.0 27.2669 30.0645 -41.9124 -28.9511 0.0828096 4.39514 37.8435 -24.0413 -5.34278 -17.0421 0.0 0.0 -0.0 0.0 -0.0 27.406 -3.12849 -18.796 -36.8245 0.277203 -5.54859 11.4003 -23.7612 1.67704 -4.12339 0.0 0.0 0.0 0.0 0.0 
2859.96597672 677.316 -1944.74621537 5.79366288172 48.1019257526 17.5942852233 1.38986 -1.24457 -6.42895 1.41245 -0.833842 -6.49473 1.51057 0.377422 -6.53698 1.4516 -0.657465 -6.51487 -5.91201 -1.48429 5.87192 -5.79597 -7.07933 5.66634 -0.0 0.0 -0.0 11.1714 -8.67556 22.4163 9.12244 -28.0147 57.6684 0.978305 -25.8554 0.224565 22.7373 0.233198 -2.87611 -0.816564 -19.5362 -13.8212 -0.0 0.0 -0.0 -0.979934 -18.9515 -0.747917 -14.1226 21.7753 -67.0709 0.714812 19.4989 -0.122822 10.504 -0.250008 1.31663 1.56699 -4.09029 -12.1385 0.0 0.0 0.0 27.2669 30.0645 -41.9124 -28.9511 0.0828096 4.39514 37.8435 -24.0413 -5.34278 -17.0421 0.0 0.0 -0.0 0.0 -0.0 27.406 -3.12849 -18.796 -36.8245 0.277203 -5.54859 11.4003 -23.7612 1.67704 -4.12339 0.0 0.0 0.0 0.0 0.0 
